<?xml version="1.0" encoding="UTF-8" standalone="no"?>
<!-- Created with Inkscape (http://www.inkscape.org/) -->

<svg
   xmlns:dc="http://purl.org/dc/elements/1.1/"
   xmlns:cc="http://creativecommons.org/ns#"
   xmlns:rdf="http://www.w3.org/1999/02/22-rdf-syntax-ns#"
   xmlns:svg="http://www.w3.org/2000/svg"
   xmlns="http://www.w3.org/2000/svg"
   xmlns:sodipodi="http://sodipodi.sourceforge.net/DTD/sodipodi-0.dtd"
   xmlns:inkscape="http://www.inkscape.org/namespaces/inkscape"
   width="744.09448819"
   height="1052.3622047"
   id="svg2"
   version="1.1"
   inkscape:version="0.47 r22583"
   sodipodi:docname="octopus.svg">
  <defs
     id="defs4">
    <inkscape:perspective
       sodipodi:type="inkscape:persp3d"
       inkscape:vp_x="0 : 526.18109 : 1"
       inkscape:vp_y="0 : 1000 : 0"
       inkscape:vp_z="744.09448 : 526.18109 : 1"
       inkscape:persp3d-origin="372.04724 : 350.78739 : 1"
       id="perspective10" />
  </defs>
  <sodipodi:namedview
     id="base"
     pagecolor="#ffffff"
     bordercolor="#666666"
     borderopacity="1.0"
     inkscape:pageopacity="0.0"
     inkscape:pageshadow="2"
     inkscape:zoom="2.8"
     inkscape:cx="199.08574"
     inkscape:cy="920.02754"
     inkscape:document-units="px"
     inkscape:current-layer="layer1"
     showgrid="false"
     inkscape:snap-global="false"
     inkscape:window-width="1279"
     inkscape:window-height="1008"
     inkscape:window-x="-1"
     inkscape:window-y="0"
     inkscape:window-maximized="1" />
  <metadata
     id="metadata7">
    <rdf:RDF>
      <cc:Work
         rdf:about="">
        <dc:format>image/svg+xml</dc:format>
        <dc:type
           rdf:resource="http://purl.org/dc/dcmitype/StillImage" />
      </cc:Work>
    </rdf:RDF>
  </metadata>
  <g
     inkscape:label="Tentacles"
     inkscape:groupmode="layer"
     id="layer1">
    <path
       style="fill:#f37100;stroke:#000000;stroke-width:2.29999999999999982;stroke-linecap:butt;stroke-linejoin:round;stroke-opacity:1;fill-opacity:1;stroke-miterlimit:4;stroke-dasharray:none;opacity:1"
       d="m 172.98862,82.868277 c 37.06224,-4.767578 67.03135,11.436753 84.51901,-5.903395 17.48766,-17.340148 4.6591,-8.715192 27.08307,-24.873222 31.7975,-12.401777 42.39556,-1.981669 47.82647,12.274761 -27.40626,-6.820316 -26.672,-3.663006 -45.19056,11.49776 -18.34227,15.016441 -15.24674,13.005833 -32.80568,31.790629 -17.55894,18.7848 -31.62628,37.49099 4.02709,45.54947 27.39822,4.00667 25.77141,-5.3735 37.92543,-28.8105 23.4174,-36.810628 39.09681,-18.6852 55.73482,7.81263 -42.60763,-18.26367 -35.19171,5.42438 -54.93443,35.44346 -18.73184,11.99387 -31.93174,13.56055 -61.52905,5.079 -25.66539,-12.78228 -37.95816,-36.44513 -30.10756,6.04723 1.80413,29.0792 45.68796,14.96099 51.22809,41.5933 5.58566,26.85118 -31.46451,34.24951 -35.63026,28.32357 13.10855,-8.82352 23.18582,-19.85919 -2.36995,-29.36827 -25.64758,-9.54324 -41.4171,-23.58018 -43.5563,-44.23912 -4.599,-32.23946 -22.82645,-25.46525 -35.03421,-2.34187 -6.92659,22.85932 -9.14803,56.93234 -21.4438,57.54217 -12.29578,0.60982 -34.665891,-32.24356 -61.686782,-36.16088 19.174363,-13.01835 44.419192,19.69585 54.561742,2.12072 10.19186,-17.66057 1.14069,-21.68799 9.86166,-41.96005 8.64405,-20.09323 22.40348,-22.85384 11.59838,-36.11918 -12.49739,2.28603 -31.85312,4.21886 -48.422852,-4.47494 C 68.073212,104.99775 55.299624,62.443816 58.49191,58.588842 62.182883,54.131658 80.712997,90.555909 95.570284,97.10206 110.42757,103.64821 135.92638,87.635855 172.98862,82.868277 z"
       id="path2824"
       sodipodi:nodetypes="czcczzcccccczczccsczzcsssz" />
    <path
       style="fill:#c83d00;stroke:#000000;stroke-width:1px;stroke-linecap:butt;stroke-linejoin:miter;stroke-opacity:1;fill-opacity:1"
       d="m 168.92857,129.1479 c -10.05993,-3.35866 -25.62059,-8.92126 -34.03972,-15.32464 -15.20314,-14.457267 -11.33297,-19.011142 -11.33297,-19.011142 0,0 14.10217,-2.066338 14.10217,-2.066338 17.75532,11.18359 19.1081,10.51429 31.27052,36.40212 z"
       id="path4398"
       sodipodi:nodetypes="ccccc" />
    <path
       style="fill:#c83d00;stroke:#000000;stroke-width:1px;stroke-linecap:butt;stroke-linejoin:miter;stroke-opacity:1;fill-opacity:1"
       d="m 133.21429,118.79075 c 0,0 -4.55153,-6.22775 -11.20781,-5.01709 -6.72804,1.22372 -14.7255,2.49462 -22.849897,0.96173 -6.31599,-0.52128 -22.654606,-8.15571 -22.654606,-8.15571 14.089814,12.32911 0.821245,3.36967 15.265898,11.10454 10.062205,3.18465 20.775985,3.44034 31.233875,2.96423 3.49973,-0.32232 10.21254,-1.8577 10.21254,-1.8577 z"
       id="path4405"
       sodipodi:nodetypes="czccccc" />
    <path
       style="fill:#c83d00;stroke:#000000;stroke-width:1px;stroke-linecap:butt;stroke-linejoin:miter;stroke-opacity:1;fill-opacity:1"
       d="m 237.5,131.6479 c 0,0 -7.01888,-5.98437 -1.19033,-13.17479 3.74643,-8.99177 13.42314,-19.98727 22.23991,-25.108656 8.96785,-5.209137 18.87694,-15.148628 25.43639,-22.37885 7.64585,-4.787979 23.38662,-9.265111 23.38662,-9.265111 -19.746,8.010889 -20.16529,16.818544 -37.28735,29.331866 -8.14019,8.219777 -18.60786,20.222741 -26.1033,29.040221 C 241.22817,124.03695 237.5,131.6479 237.5,131.6479 z"
       id="path4422"
       sodipodi:nodetypes="cczccccc" />
    <path
       style="fill:#c83d00;stroke:#000000;stroke-width:1px;stroke-linecap:butt;stroke-linejoin:miter;stroke-opacity:1;fill-opacity:1"
       d="m 159.64286,151.29075 c -6.82311,-6.39777 -19.16643,-2.2515 -20.9609,9.48527 -3.49015,19.57862 -9.39963,55.06266 -9.39963,55.06266 0,0 2.88561,-13.47548 8.05602,-31.794 3.5646,-21.89496 12.88231,-24.73587 22.30451,-32.75393 z"
       id="path4428"
       sodipodi:nodetypes="ccccc" />
    <path
       style="fill:#c83d00;stroke:#000000;stroke-width:1px;stroke-linecap:butt;stroke-linejoin:miter;stroke-opacity:1;fill-opacity:1"
       d="m 205.35714,152.36218 c 0,0 9.39534,-6.17856 13.76482,0.92444 5.88531,7.14145 18.374,14.0843 27.60914,16.78 16.33496,6.00234 33.35415,4.1297 48.91384,-3.04723 0,0 -3.37106,5.3765 -5.68994,6.71171 -4.74333,2.36535 -10.1938,1.77683 -15.19857,3.20311 -10.45967,3.09726 -25.97656,-1.29033 -36.48723,-2.15042 -13.80635,-4.95556 -26.49485,-18.85938 -32.91206,-22.42161 z"
       id="path4435"
       sodipodi:nodetypes="cccccccc" />
  </g>
  <g
     inkscape:groupmode="layer"
     id="layer2"
     inkscape:label="Head">
    <path
       style="fill:#f37100;stroke:#000000;stroke-width:2.3;stroke-linecap:round;stroke-linejoin:round;stroke-opacity:1;fill-opacity:1;stroke-miterlimit:4;stroke-dasharray:none"
       d="m 168.69548,129.08276 c -12.36006,-9.3502 -27.04377,-17.00655 -34.84544,-31.018272 -10.92049,-19.492115 -0.91325,-47.364511 20.05737,-55.237617 15.98469,-6.153355 34.85833,1.247062 44.64704,14.759293 8.76985,11.368891 11.6993,26.460901 9.63111,40.501916 -0.20141,6.12252 -0.48985,12.24249 -0.59976,18.36777"
       id="path2816" />
    <g
       id="g3726" />
    <g
       id="g3730"
       style="fill:#ded519;fill-opacity:1">
      <path
         style="fill:#ded519;stroke:#000000;stroke-width:1px;stroke-linecap:butt;stroke-linejoin:miter;stroke-opacity:1;fill-opacity:1"
         d="m 147.13615,106.42111 c 6.1107,3.99591 12.34366,9.98697 18.99866,10.55708 6.63745,0.56861 14.99979,-1.71742 12.78475,-13.17988 -4.70249,-15.941546 -22.17358,-1.77662 -31.78341,2.6228 z"
         id="path3675"
         sodipodi:nodetypes="czcc" />
      <path
         id="path3679"
         d="m 189.55679,100.01766 c -0.59841,-12.173669 10.33299,-13.191702 19.92142,-13.111532 -1.98257,6.873227 -1.5148,7.56022 -3.50099,13.903952 -2.00174,6.39336 -15.26911,10.98118 -16.42043,-0.79242 z"
         style="fill:#ded519;fill-opacity:1;stroke:#000000;stroke-width:1px;stroke-linecap:butt;stroke-linejoin:miter;stroke-opacity:1"
         sodipodi:nodetypes="cczc" />
    </g>
  </g>
</svg>
