<?xml version="1.0" encoding="UTF-8" standalone="no"?>
<!-- Created with Inkscape (http://www.inkscape.org/) -->

<svg
   xmlns:dc="http://purl.org/dc/elements/1.1/"
   xmlns:cc="http://creativecommons.org/ns#"
   xmlns:rdf="http://www.w3.org/1999/02/22-rdf-syntax-ns#"
   xmlns:svg="http://www.w3.org/2000/svg"
   xmlns="http://www.w3.org/2000/svg"
   xmlns:sodipodi="http://sodipodi.sourceforge.net/DTD/sodipodi-0.dtd"
   xmlns:inkscape="http://www.inkscape.org/namespaces/inkscape"
   width="744.09448819"
   height="1052.3622047"
   id="svg3757"
   version="1.1"
   inkscape:version="0.47 r22583"
   sodipodi:docname="New document 5">
  <defs
     id="defs3759">
    <inkscape:perspective
       sodipodi:type="inkscape:persp3d"
       inkscape:vp_x="0 : 526.18109 : 1"
       inkscape:vp_y="0 : 1000 : 0"
       inkscape:vp_z="744.09448 : 526.18109 : 1"
       inkscape:persp3d-origin="372.04724 : 350.78739 : 1"
       id="perspective3765" />
    <inkscape:perspective
       id="perspective4309"
       inkscape:persp3d-origin="0.5 : 0.33333333 : 1"
       inkscape:vp_z="1 : 0.5 : 1"
       inkscape:vp_y="0 : 1000 : 0"
       inkscape:vp_x="0 : 0.5 : 1"
       sodipodi:type="inkscape:persp3d" />
    <inkscape:perspective
       id="perspective4309-9"
       inkscape:persp3d-origin="0.5 : 0.33333333 : 1"
       inkscape:vp_z="1 : 0.5 : 1"
       inkscape:vp_y="0 : 1000 : 0"
       inkscape:vp_x="0 : 0.5 : 1"
       sodipodi:type="inkscape:persp3d" />
    <inkscape:perspective
       id="perspective4309-90"
       inkscape:persp3d-origin="0.5 : 0.33333333 : 1"
       inkscape:vp_z="1 : 0.5 : 1"
       inkscape:vp_y="0 : 1000 : 0"
       inkscape:vp_x="0 : 0.5 : 1"
       sodipodi:type="inkscape:persp3d" />
    <inkscape:perspective
       id="perspective4309-1"
       inkscape:persp3d-origin="0.5 : 0.33333333 : 1"
       inkscape:vp_z="1 : 0.5 : 1"
       inkscape:vp_y="0 : 1000 : 0"
       inkscape:vp_x="0 : 0.5 : 1"
       sodipodi:type="inkscape:persp3d" />
    <inkscape:perspective
       id="perspective4309-7"
       inkscape:persp3d-origin="0.5 : 0.33333333 : 1"
       inkscape:vp_z="1 : 0.5 : 1"
       inkscape:vp_y="0 : 1000 : 0"
       inkscape:vp_x="0 : 0.5 : 1"
       sodipodi:type="inkscape:persp3d" />
    <inkscape:perspective
       id="perspective4309-15"
       inkscape:persp3d-origin="0.5 : 0.33333333 : 1"
       inkscape:vp_z="1 : 0.5 : 1"
       inkscape:vp_y="0 : 1000 : 0"
       inkscape:vp_x="0 : 0.5 : 1"
       sodipodi:type="inkscape:persp3d" />
  </defs>
  <sodipodi:namedview
     id="base"
     pagecolor="#ffffff"
     bordercolor="#666666"
     borderopacity="1.0"
     inkscape:pageopacity="0.0"
     inkscape:pageshadow="2"
     inkscape:zoom="0.98994949"
     inkscape:cx="186.81343"
     inkscape:cy="751.17286"
     inkscape:document-units="px"
     inkscape:current-layer="layer1"
     showgrid="false"
     inkscape:window-width="825"
     inkscape:window-height="836"
     inkscape:window-x="136"
     inkscape:window-y="65"
     inkscape:window-maximized="0" />
  <metadata
     id="metadata3762">
    <rdf:RDF>
      <cc:Work
         rdf:about="">
        <dc:format>image/svg+xml</dc:format>
        <dc:type
           rdf:resource="http://purl.org/dc/dcmitype/StillImage" />
        <dc:title></dc:title>
      </cc:Work>
    </rdf:RDF>
  </metadata>
  <g
     inkscape:label="tentacle"
     inkscape:groupmode="layer"
     id="layer1">
    <path
       style="fill:#f37100;stroke:#000000;stroke-width:4.6;stroke-linecap:round;stroke-linejoin:round;stroke-opacity:1;fill-opacity:1;stroke-miterlimit:4;stroke-dasharray:none"
       d="m 132.32998,557.38744 c 4.00049,-38.86347 37.28686,-76.73338 38.80735,-115.35654 1.52049,-38.62316 6.38065,-67.83417 -1.95281,-111.31183 -8.33346,-43.47766 -54.55995,-96.62619 -46.7394,-147.79993 7.82055,-51.17374 58.73711,-86.326203 99.96978,-89.38477 41.23267,-3.058566 70.87452,12.40206 95.65929,33.21246 24.78477,20.8104 30.48563,53.06505 35.03449,82.82697 -24.64009,-37.21349 -84.08778,-72.28782 -127.18917,-43.78312 -43.1014,28.50469 8.74538,80.21742 21.09525,103.14823 12.34987,22.93081 15.56847,52.76116 25.24496,116.34511 9.67649,63.58395 -9.24608,101.59313 10.58299,172.10342"
       id="path3767"
       sodipodi:nodetypes="czzzzzczzzc" />
    <path
       sodipodi:type="arc"
       style="fill:#f37100;fill-opacity:1;stroke-width:4.5999999;stroke-linecap:round;stroke-linejoin:round;stroke-miterlimit:4;stroke-dasharray:none"
       id="path4286"
       sodipodi:cx="211.62695"
       sodipodi:cy="242.21985"
       sodipodi:rx="7.5761442"
       sodipodi:ry="8.0812206"
       d="m 219.2031,242.21985 a 7.5761442,8.0812206 0 1 1 -15.15229,0 7.5761442,8.0812206 0 1 1 15.15229,0 z" />
    <path
       style="fill:#d76600;stroke:#000000;stroke-width:1px;stroke-linecap:butt;stroke-linejoin:miter;stroke-opacity:1;fill-opacity:1"
       d="m 299.00515,165.44825 c 3.05272,10.20633 -50.66121,-38.1474 -82.99466,11.17133 -23.32894,35.584 33.48517,64.99007 44.27805,145.66786 6.63945,49.63053 20.09808,102.11325 10.09826,161.95006 -2.66311,15.93554 3.16808,46.36291 10.57929,71.40841 -40.06596,1.81199 -44.20672,4.30302 -44.59039,-1.28893 -3.06939,-44.7356 -27.0267,-91.71833 -8.97987,-136.16427 16.15602,-51.09529 20.1102,-110.67512 -14.61448,-155.36382 -35.66159,-37.0121 -41.97252,-83.18997 4.54725,-111.78229 12.50104,-7.77639 69.46569,-26.42368 81.67655,14.40165 z"
       id="path4370"
       sodipodi:nodetypes="cssscccccc" />
  </g>
  <g
     inkscape:groupmode="layer"
     id="layer3"
     inkscape:label="suckers">
    <path
       sodipodi:type="arc"
       style="fill:#f3e300;fill-opacity:1;stroke-width:1;stroke-linecap:round;stroke-linejoin:round;stroke-miterlimit:4;stroke-dasharray:none;stroke:#000000;stroke-opacity:1"
       id="path4299"
       sodipodi:cx="251.0229"
       sodipodi:cy="323.03204"
       sodipodi:rx="7.5761442"
       sodipodi:ry="16.162441"
       d="m 258.59905,323.03204 a 7.5761442,16.162441 0 1 1 -15.15229,0 7.5761442,16.162441 0 1 1 15.15229,0 z" />
    <path
       transform="translate(-15.65736,50.507629)"
       sodipodi:type="arc"
       style="fill:#f3e300;fill-opacity:1;stroke:#000000;stroke-width:1;stroke-linecap:round;stroke-linejoin:round;stroke-miterlimit:4;stroke-opacity:1;stroke-dasharray:none"
       id="path4299-5"
       sodipodi:cx="251.0229"
       sodipodi:cy="323.03204"
       sodipodi:rx="7.5761442"
       sodipodi:ry="16.162441"
       d="m 258.59905,323.03204 a 7.5761442,16.162441 0 1 1 -15.15229,0 7.5761442,16.162441 0 1 1 15.15229,0 z" />
    <path
       transform="translate(8.5863008,86.87312)"
       sodipodi:type="arc"
       style="fill:#f3e300;fill-opacity:1;stroke:#000000;stroke-width:1;stroke-linecap:round;stroke-linejoin:round;stroke-miterlimit:4;stroke-opacity:1;stroke-dasharray:none"
       id="path4299-4"
       sodipodi:cx="251.0229"
       sodipodi:cy="323.03204"
       sodipodi:rx="7.5761442"
       sodipodi:ry="16.162441"
       d="m 258.59905,323.03204 a 7.5761442,16.162441 0 1 1 -15.15229,0 7.5761442,16.162441 0 1 1 15.15229,0 z" />
    <path
       transform="translate(-13.637055,129.29952)"
       sodipodi:type="arc"
       style="fill:#f3e300;fill-opacity:1;stroke:#000000;stroke-width:1;stroke-linecap:round;stroke-linejoin:round;stroke-miterlimit:4;stroke-opacity:1;stroke-dasharray:none"
       id="path4299-9"
       sodipodi:cx="251.0229"
       sodipodi:cy="323.03204"
       sodipodi:rx="7.5761442"
       sodipodi:ry="16.162441"
       d="m 258.59905,323.03204 a 7.5761442,16.162441 0 1 1 -15.15229,0 7.5761442,16.162441 0 1 1 15.15229,0 z" />
    <path
       transform="translate(5.5558431,180.8173)"
       sodipodi:type="arc"
       style="fill:#f3e300;fill-opacity:1;stroke:#000000;stroke-width:1;stroke-linecap:round;stroke-linejoin:round;stroke-miterlimit:4;stroke-opacity:1;stroke-dasharray:none"
       id="path4299-7"
       sodipodi:cx="251.0229"
       sodipodi:cy="323.03204"
       sodipodi:rx="7.5761442"
       sodipodi:ry="16.162441"
       d="m 258.59905,323.03204 a 7.5761442,16.162441 0 1 1 -15.15229,0 7.5761442,16.162441 0 1 1 15.15229,0 z" />
    <path
       transform="translate(-24.748733,217.1828)"
       sodipodi:type="arc"
       style="fill:#f3e300;fill-opacity:1;stroke:#000000;stroke-width:1;stroke-linecap:round;stroke-linejoin:round;stroke-miterlimit:4;stroke-opacity:1;stroke-dasharray:none"
       id="path4299-1"
       sodipodi:cx="251.0229"
       sodipodi:cy="323.03204"
       sodipodi:rx="7.5761442"
       sodipodi:ry="16.162441"
       d="m 258.59905,323.03204 a 7.5761442,16.162441 0 1 1 -15.15229,0 7.5761442,16.162441 0 1 1 15.15229,0 z" />
    <path
       transform="translate(-22.728428,-33.335032)"
       sodipodi:type="arc"
       style="fill:#f3e300;fill-opacity:1;stroke:#000000;stroke-width:1;stroke-linecap:round;stroke-linejoin:round;stroke-miterlimit:4;stroke-opacity:1;stroke-dasharray:none"
       id="path4299-97"
       sodipodi:cx="251.0229"
       sodipodi:cy="323.03204"
       sodipodi:rx="7.5761442"
       sodipodi:ry="16.162441"
       d="m 258.59905,323.03204 a 7.5761442,16.162441 0 1 1 -15.15229,0 7.5761442,16.162441 0 1 1 15.15229,0 z" />
  </g>
</svg>
